<?xml version="1.0" encoding="UTF-8"?>
<svg id="DROIT" xmlns="http://www.w3.org/2000/svg" viewBox="0 0 50 50">
  <defs>
    <style>
      .cls-1 {
        fill: #e6e6e6;
      }

      .cls-1, .cls-2, .cls-3 {
        stroke-width: 0px;
      }

      .cls-2 {
        fill: #333;
      }

      .cls-3 {
        fill: #ccc;
      }
    </style>
  </defs>
  <rect class="cls-3" x="18.36" y="12.22" width="12.74" height="25.6"/>
  <path class="cls-1" d="M15.59,8.2h18.82c1.23,0,2.24-1.12,2.24-2.51s-1-2.51-2.24-2.51H15.59c-1.23,0-2.24,1.12-2.24,2.51s1,2.51,2.24,2.51Z"/>
  <path class="cls-1" d="M34.41,41.8H15.59c-1.23,0-2.24,1.12-2.24,2.51s1,2.51,2.24,2.51h18.82c1.23,0,2.24-1.12,2.24-2.51s-1-2.51-2.24-2.51Z"/>
  <path class="cls-2" d="M34.91,38.66V11.34c2.57-.28,4.59-2.69,4.59-5.64C39.5,2.56,37.22,0,34.41,0H15.59C12.78,0,10.5,2.56,10.5,5.7c0,2.75,1.75,5.04,4.06,5.58v27.45c-2.31.53-4.06,2.83-4.06,5.58,0,3.14,2.28,5.7,5.09,5.7h18.82c2.81,0,5.09-2.56,5.09-5.7,0-2.95-2.02-5.36-4.59-5.64ZM34.41,46.81H15.59c-1.23,0-2.24-1.12-2.24-2.51s1-2.51,2.24-2.51h18.82c1.23,0,2.24,1.12,2.24,2.51s-1,2.51-2.24,2.51ZM13.35,5.7c0-1.38,1-2.51,2.24-2.51h18.82c1.23,0,2.24,1.12,2.24,2.51s-1,2.51-2.24,2.51H15.59c-1.23,0-2.24-1.12-2.24-2.51ZM18.36,12.22h12.74v25.6h-12.74V12.22Z"/>
</svg>