<?xml version="1.0" encoding="UTF-8"?>
<svg id="Calque_8" data-name="Calque 8" xmlns="http://www.w3.org/2000/svg" viewBox="0 0 50 50">
  <defs>
    <style>
      .cls-1 {
        fill: #999;
      }

      .cls-1, .cls-2, .cls-3, .cls-4, .cls-5, .cls-6 {
        stroke-width: 0px;
      }

      .cls-2 {
        fill: #e6e6e6;
      }

      .cls-4 {
        fill: #333;
      }

      .cls-5 {
        fill: #ccc;
      }

      .cls-6 {
        fill: #fff;
      }
    </style>
  </defs>
  <g>
    <rect class="cls-5" x="24" y="19.32" width="14.36" height="12.74"/>
    <path class="cls-2" d="M44.58,14.31c-1.32,0-2.39,1-2.39,2.24v18.82c0,1.23,1.07,2.24,2.39,2.24s2.39-1,2.39-2.24v-18.82c0-1.23-1.07-2.24-2.39-2.24Z"/>
    <path class="cls-4" d="M44.58,11.46c-2.62,0-4.8,1.75-5.31,4.06h-15.26v3.8h14.36v12.74h-14.36v3.8h15.2c.27,2.57,2.56,4.59,5.37,4.59,2.99,0,5.42-2.28,5.42-5.09v-18.82c0-2.81-2.43-5.09-5.42-5.09ZM46.96,35.36c0,1.23-1.07,2.24-2.39,2.24s-2.39-1-2.39-2.24v-18.82c0-1.23,1.07-2.24,2.39-2.24s2.39,1,2.39,2.24v18.82Z"/>
  </g>
  <g>
    <path class="cls-5" d="M32.15,11.57c-.15-.06-.3-.11-.47-.14s-.33-.05-.5-.05H8.15c-.17,0-.34.02-.5.05s-.32.08-.47.14c-.3.13-.56.31-.79.53-.45.45-.73,1.07-.73,1.75v23.04c0,.68.28,1.3.73,1.75.22.22.49.41.79.53.15.06.3.11.47.14s.33.05.5.05h23.04c.17,0,.34-.02.5-.05s.32-.08.47-.14c.44-.19.82-.5,1.09-.9s.42-.87.42-1.39V13.86c0-.51-.16-.99-.42-1.39-.27-.4-.65-.71-1.09-.9ZM8.21,12.4c.84,0,1.52.68,1.52,1.52s-.68,1.52-1.52,1.52-1.52-.68-1.52-1.52.68-1.52,1.52-1.52ZM8.21,38.35c-.84,0-1.52-.68-1.52-1.52s.68-1.52,1.52-1.52,1.52.68,1.52,1.52-.68,1.52-1.52,1.52ZM20,36c-6.08,0-11-4.92-11-11s4.92-11,11-11,11,4.92,11,11-4.92,11-11,11ZM31.12,38.35c-.84,0-1.52-.68-1.52-1.52s.68-1.52,1.52-1.52,1.52.68,1.52,1.52-.68,1.52-1.52,1.52ZM31.12,15.45c-.84,0-1.52-.68-1.52-1.52s.68-1.52,1.52-1.52,1.52.68,1.52,1.52-.68,1.52-1.52,1.52Z"/>
    <path class="cls-4" d="M31.19,7.38H8.15c-3.57,0-6.48,2.91-6.48,6.48v23.04c0,3.57,2.91,6.48,6.48,6.48h23.04c3.57,0,6.48-2.91,6.48-6.48V13.86c0-3.57-2.91-6.48-6.48-6.48ZM33.67,36.9c0,.51-.16.99-.42,1.39s-.65.71-1.09.9c-.15.06-.3.11-.47.14s-.33.05-.5.05H8.15c-.17,0-.34-.02-.5-.05s-.32-.08-.47-.14c-.3-.13-.56-.31-.79-.53-.45-.45-.73-1.07-.73-1.75V13.86c0-.68.28-1.3.73-1.75.22-.22.49-.41.79-.53.15-.06.3-.11.47-.14s.33-.05.5-.05h23.04c.17,0,.34.02.5.05s.32.08.47.14c.44.19.82.5,1.09.9.27.4.42.87.42,1.39v23.04Z"/>
    <path class="cls-2" d="M9.24,13.92c0-.54-.42-.97-.95-1.01v2.02c.53-.04.95-.47.95-1.01Z"/>
    <path class="cls-2" d="M8.14,14.93v-2.02c-.53.04-.95.47-.95,1.01s.42.97.95,1.01Z"/>
    <path class="cls-4" d="M8.21,15.45c.84,0,1.52-.68,1.52-1.52s-.68-1.52-1.52-1.52-1.52.68-1.52,1.52.68,1.52,1.52,1.52ZM8.29,12.92c.53.04.95.47.95,1.01s-.42.97-.95,1.01v-2.02ZM8.14,12.91v2.02c-.53-.04-.95-.47-.95-1.01s.42-.97.95-1.01Z"/>
    <path class="cls-2" d="M30.1,36.83c0,.54.42.97.95,1.01v-2.02c-.53.04-.95.47-.95,1.01Z"/>
    <path class="cls-2" d="M31.2,35.82v2.02c.53-.04.95-.47.95-1.01s-.42-.97-.95-1.01Z"/>
    <path class="cls-4" d="M31.12,35.31c-.84,0-1.52.68-1.52,1.52s.68,1.52,1.52,1.52,1.52-.68,1.52-1.52-.68-1.52-1.52-1.52ZM31.05,37.84c-.53-.04-.95-.47-.95-1.01s.42-.97.95-1.01v2.02ZM31.2,37.84v-2.02c.53.04.95.47.95,1.01s-.42.97-.95,1.01Z"/>
    <path class="cls-2" d="M31.2,12.91v2.02c.53-.04.95-.47.95-1.01s-.42-.97-.95-1.01Z"/>
    <path class="cls-2" d="M30.1,13.92c0,.54.42.97.95,1.01v-2.02c-.53.04-.95.47-.95,1.01Z"/>
    <path class="cls-4" d="M31.12,12.4c-.84,0-1.52.68-1.52,1.52s.68,1.52,1.52,1.52,1.52-.68,1.52-1.52-.68-1.52-1.52-1.52ZM31.05,14.93c-.53-.04-.95-.47-.95-1.01s.42-.97.95-1.01v2.02ZM31.2,14.93v-2.02c.53.04.95.47.95,1.01s-.42.97-.95,1.01Z"/>
    <path class="cls-2" d="M7.19,36.83c0,.54.42.97.95,1.01v-2.02c-.53.04-.95.47-.95,1.01Z"/>
    <path class="cls-2" d="M8.29,35.82v2.02c.53-.04.95-.47.95-1.01s-.42-.97-.95-1.01Z"/>
    <path class="cls-4" d="M8.21,35.31c-.84,0-1.52.68-1.52,1.52s.68,1.52,1.52,1.52,1.52-.68,1.52-1.52-.68-1.52-1.52-1.52ZM8.14,37.84c-.53-.04-.95-.47-.95-1.01s.42-.97.95-1.01v2.02ZM8.29,37.84v-2.02c.53.04.95.47.95,1.01s-.42.97-.95,1.01Z"/>
    <path class="cls-1" d="M20,14c-6.08,0-11,4.92-11,11s4.92,11,11,11,11-4.92,11-11-4.92-11-11-11ZM15.13,20.59c-.1.16-.22.29-.38.38v10.45c0,.08-.02.14-.07.19-.05.05-.11.07-.19.07h-.53c-.08,0-.14-.02-.19-.07-.05-.05-.07-.11-.07-.19v-10.45c-.16-.09-.29-.22-.38-.38-.1-.16-.14-.34-.14-.53,0-.29.1-.54.31-.75.21-.21.46-.31.75-.31s.54.1.75.31c.21.21.31.46.31.75,0,.19-.05.37-.14.53ZM27.43,26.89c0,.21-.1.37-.29.47-.05.03-.1.05-.14.07-1.2.64-2.22.96-3.05.96-.48,0-.92-.1-1.3-.29l-.23-.12c-.35-.18-.62-.31-.82-.4-.19-.08-.44-.16-.75-.24-.31-.08-.62-.12-.94-.12-.56,0-1.21.12-1.94.36-.73.24-1.36.52-1.89.84-.08.05-.17.07-.27.07-.09,0-.18-.02-.26-.07-.18-.1-.26-.26-.26-.46v-6.13c0-.19.09-.34.26-.45.19-.12.41-.23.65-.35.24-.12.55-.26.94-.43.39-.17.81-.3,1.26-.41.45-.1.88-.16,1.28-.16.62,0,1.19.09,1.73.26.53.17,1.11.41,1.73.71.21.1.45.16.74.16.67,0,1.52-.31,2.56-.92.12-.07.21-.11.26-.14.17-.09.34-.08.51.02.17.11.26.26.26.45v6.3Z"/>
    <path class="cls-3" d="M14.21,19c-.29,0-.54.1-.75.31-.21.21-.31.46-.31.75,0,.19.05.37.14.53.1.16.22.29.38.38v10.45c0,.08.02.14.07.19.05.05.11.07.19.07h.53c.08,0,.14-.02.19-.07.05-.05.07-.11.07-.19v-10.45c.16-.09.29-.22.38-.38.1-.16.14-.34.14-.53,0-.29-.1-.54-.31-.75-.21-.21-.46-.31-.75-.31Z"/>
    <path class="cls-6" d="M16.33,27.11c1.13-.53,2.19-.83,3.17-.91v-1.59c-1,.09-2.05.41-3.17.97v1.53Z"/>
    <path class="cls-6" d="M23.2,25.64v1.55c.23.09.48.14.75.14.66,0,1.47-.25,2.42-.76v-1.52c-1.29.64-2.35.83-3.17.59Z"/>
    <path class="cls-6" d="M19.5,21.12c-.95.04-2,.39-3.17,1.04v1.56c1.18-.61,2.24-.94,3.17-.97v-1.63Z"/>
    <path class="cls-6" d="M23.2,22.17v1.62c.81.23,1.87-.02,3.17-.74h0v-1.56c-.93.5-1.77.75-2.53.75-.25,0-.46-.02-.64-.07Z"/>
    <path class="cls-6" d="M22.6,23.53c-.15-.08-.25-.12-.29-.14-.04-.02-.12-.06-.26-.12-.14-.07-.23-.11-.29-.13-.05-.02-.14-.06-.27-.11-.13-.05-.23-.09-.3-.1-.07-.02-.17-.04-.29-.07-.12-.03-.23-.05-.33-.06-.1-.01-.21-.02-.33-.03s-.24-.02-.36-.02-.26,0-.4.02v1.83h.16c.56,0,1.09.08,1.59.24.5.16,1.04.39,1.63.68.1.05.21.09.32.12v-1.85c-.11-.03-.22-.07-.32-.12-.03-.02-.12-.06-.27-.14Z"/>
    <path class="cls-3" d="M26.66,20.11s-.14.07-.26.14c-1.04.62-1.89.92-2.56.92-.28,0-.53-.05-.74-.16-.62-.3-1.19-.54-1.73-.71-.53-.17-1.11-.26-1.73-.26-.4,0-.83.05-1.28.16-.45.1-.87.24-1.26.41-.39.17-.7.31-.94.43-.24.12-.46.24-.65.35-.17.11-.26.26-.26.45v6.13c0,.2.09.36.26.46.09.04.18.07.26.07.1,0,.19-.02.27-.07.52-.32,1.15-.6,1.89-.84.74-.24,1.38-.36,1.94-.36.32,0,.63.04.94.12.31.08.56.16.75.24.19.08.47.21.82.4l.23.12c.39.19.82.29,1.3.29.83,0,1.85-.32,3.05-.96.04-.02.09-.05.14-.07.19-.1.29-.26.29-.47v-6.3c0-.19-.08-.34-.26-.45-.17-.1-.34-.1-.51-.02ZM16.33,22.16c1.17-.65,2.22-1,3.17-1.04v1.63c-.93.04-1.99.36-3.17.97v-1.56ZM19.5,26.2c-.99.08-2.04.38-3.17.91v-1.53c1.12-.56,2.17-.88,3.17-.97v1.59ZM26.37,26.57c-.95.51-1.76.76-2.42.76-.27,0-.52-.05-.75-.14v-1.55c.82.25,1.88.05,3.17-.59v1.52ZM26.37,23.05h0c-1.3.73-2.36.97-3.17.74v1.85c-.11-.03-.22-.07-.32-.12-.59-.29-1.13-.52-1.63-.68-.5-.16-1.03-.24-1.59-.24h-.16v-1.83c.14-.02.28-.02.4-.02s.24,0,.36.02.23.02.33.03c.1.01.2.03.33.06.12.03.22.05.29.07.07.02.17.05.3.1.13.05.22.09.27.11.05.02.15.06.29.13.14.07.22.11.26.12.04.02.13.06.29.14s.25.12.27.14c.1.05.21.09.32.12v-1.62c.18.04.4.07.64.07.75,0,1.6-.25,2.53-.75v1.56Z"/>
  </g>
</svg>