<?xml version="1.0" encoding="UTF-8"?>
<svg id="angle" xmlns="http://www.w3.org/2000/svg" viewBox="0 0 50 50">
  <defs>
    <style>
      .cls-1 {
        fill: #e6e6e6;
      }

      .cls-1, .cls-2, .cls-3, .cls-4 {
        stroke-width: 0px;
      }

      .cls-2 {
        fill: none;
      }

      .cls-3 {
        fill: #333;
      }

      .cls-4 {
        fill: #ccc;
      }
    </style>
  </defs>
  <path class="cls-2" d="M34.91,18.86c-.72-.07-1.39-.29-1.96-.68.57.38,1.24.61,1.96.68h0Z"/>
  <path class="cls-2" d="M35.1,8.07c.06-.02.12-.03.18-.06-.06.03-.12.04-.18.06h0Z"/>
  <path class="cls-2" d="M35.1,3.33h0c.06.02.12.03.18.06-.06-.03-.12-.04-.18-.06Z"/>
  <path class="cls-2" d="M31.19,15.55c.11.55.33,1.05.63,1.5-.3-.45-.52-.95-.63-1.5Z"/>
  <path class="cls-4" d="M37.82,31.64v-12.74h-2.92v-.04c-.72-.07-1.39-.29-1.96-.68-.45-.3-.83-.69-1.13-1.13-.3-.45-.52-.95-.63-1.5-.03-.15-.03-.31-.05-.46h-.04v-2.87h-12.74v15.22c0,.29.03.57.08.84.11.55.33,1.05.63,1.5.3.45.69.83,1.13,1.13.67.45,1.47.72,2.34.72h15.27Z"/>
  <path class="cls-1" d="M15.59,8.2h18.82c.24,0,.47-.05.69-.14.06-.02.12-.03.18-.06.13-.06.26-.14.38-.23.6-.45.99-1.21.99-2.08s-.39-1.63-.99-2.08c-.12-.09-.25-.17-.38-.23-.06-.03-.12-.04-.18-.06-.22-.08-.45-.14-.69-.14H15.59c-.31,0-.6.07-.87.2-.13.06-.26.14-.38.23-.6.45-.99,1.21-.99,2.08s.39,1.63.99,2.08c.12.09.25.17.38.23.27.13.56.2.87.2Z"/>
  <path class="cls-1" d="M44.3,13.35c-1.38,0-2.51,1-2.51,2.24v18.82c0,1.23,1.12,2.24,2.51,2.24s2.51-1,2.51-2.24V15.59c0-1.23-1.12-2.24-2.51-2.24Z"/>
  <path class="cls-3" d="M44.3,10.5c-2.87,0-5.21,1.92-5.6,4.4h-3.41c-.1,0-.19-.08-.19-.19v-3.41c2.47-.38,4.4-2.72,4.4-5.6,0-3.14-2.28-5.7-5.09-5.7H15.59c-2.81,0-5.09,2.56-5.09,5.7,0,2.67,1.65,4.89,3.86,5.51v16.24c0,4.52,3.67,8.19,8.19,8.19h16.24c.62,2.21,2.85,3.86,5.51,3.86,3.14,0,5.7-2.28,5.7-5.09V15.59c0-2.81-2.56-5.09-5.7-5.09ZM14.34,7.77c-.6-.45-.99-1.21-.99-2.08s.39-1.63.99-2.08c.12-.09.25-.17.38-.23.27-.13.56-.2.87-.2h18.82c.24,0,.47.05.69.14h0c.06.02.12.03.18.06.13.06.26.14.38.23.6.45.99,1.21.99,2.08s-.39,1.63-.99,2.08c-.12.09-.25.17-.38.23-.06.03-.12.04-.18.06h0c-.22.08-.45.14-.69.14H15.59c-.31,0-.6-.07-.87-.2-.13-.06-.26-.14-.38-.23ZM22.55,31.64c-.87,0-1.67-.26-2.34-.72-.45-.3-.83-.69-1.13-1.13-.3-.45-.52-.95-.63-1.5-.06-.27-.08-.56-.08-.84v-15.22h12.74v2.87h.04c.01.15.02.31.05.46.11.55.33,1.05.63,1.5.3.45.69.83,1.13,1.13.57.38,1.24.61,1.96.68h0v.04h2.92v12.74h-15.27ZM46.81,34.41c0,1.23-1.12,2.24-2.51,2.24s-2.51-1-2.51-2.24V15.59c0-1.23,1.12-2.24,2.51-2.24s2.51,1,2.51,2.24v18.82Z"/>
</svg>