<?xml version="1.0" encoding="UTF-8"?>
<svg xmlns="http://www.w3.org/2000/svg" viewBox="0 0 50 50">
  <defs>
    <style>
      .cls-1 {
        fill: #e6e6e6;
      }

      .cls-1, .cls-2, .cls-3, .cls-4 {
        stroke-width: 0px;
      }

      .cls-2 {
        fill: none;
      }

      .cls-3 {
        fill: #333;
      }

      .cls-4 {
        fill: #ccc;
      }
    </style>
  </defs>
  <g id="DROIT">
    <g>
      <rect class="cls-4" x="12.98" y="18.9" width="25.09" height="12.74"/>
      <path class="cls-1" d="M9.04,34.41V15.59c0-1.23-1.1-2.24-2.46-2.24s-2.46,1-2.46,2.24v18.82c0,1.23,1.1,2.24,2.46,2.24s2.46-1,2.46-2.24Z"/>
      <path class="cls-1" d="M41.96,15.59v18.82c0,1.23,1.1,2.24,2.46,2.24s2.46-1,2.46-2.24V15.59c0-1.23-1.1-2.24-2.46-2.24s-2.46,1-2.46,2.24Z"/>
      <path class="cls-3" d="M38.89,15.09H12.11c-.28-2.57-2.64-4.59-5.53-4.59-3.08,0-5.58,2.28-5.58,5.09v18.82c0,2.81,2.5,5.09,5.58,5.09,2.69,0,4.94-1.75,5.47-4.06h26.9c.52,2.31,2.78,4.06,5.47,4.06,3.08,0,5.58-2.28,5.58-5.09V15.59c0-2.81-2.5-5.09-5.58-5.09-2.89,0-5.25,2.02-5.53,4.59ZM46.87,15.59v18.82c0,1.23-1.1,2.24-2.46,2.24s-2.46-1-2.46-2.24V15.59c0-1.23,1.1-2.24,2.46-2.24s2.46,1,2.46,2.24ZM6.58,36.65c-1.35,0-2.46-1-2.46-2.24V15.59c0-1.23,1.1-2.24,2.46-2.24s2.46,1,2.46,2.24v18.82c0,1.23-1.1,2.24-2.46,2.24ZM12.98,31.64v-12.74h25.09v12.74H12.98Z"/>
    </g>
  </g>
  <g id="Calque_6" data-name="Calque 6">
    <g>
      <path class="cls-2" d="M6.51,38.81c-.3-.13-.56-.31-.79-.53.22.22.49.41.79.53Z"/>
      <path class="cls-2" d="M5.73,11.73c.22-.22.49-.41.79-.53-.3.13-.56.31-.79.53Z"/>
      <path class="cls-2" d="M31.49,38.81c.44-.19.82-.5,1.09-.9-.27.4-.65.71-1.09.9Z"/>
      <path class="cls-2" d="M32.58,12.09c-.27-.4-.65-.71-1.09-.9.44.19.82.5,1.09.9Z"/>
      <path class="cls-4" d="M31.49,11.19c-.15-.06-.3-.11-.47-.14s-.33-.05-.5-.05H7.48c-.17,0-.34.02-.5.05s-.32.08-.47.14c-.3.13-.56.31-.79.53-.45.45-.73,1.07-.73,1.75v23.04c0,.68.28,1.3.73,1.75.22.22.49.41.79.53.15.06.3.11.47.14s.33.05.5.05h23.04c.17,0,.34-.02.5-.05s.32-.08.47-.14c.44-.19.82-.5,1.09-.9s.42-.87.42-1.39V13.48c0-.51-.16-.99-.42-1.39-.27-.4-.65-.71-1.09-.9ZM7.55,37.98c-.84,0-1.52-.68-1.52-1.52s.68-1.52,1.52-1.52,1.52.68,1.52,1.52-.68,1.52-1.52,1.52ZM7.55,15.07c-.84,0-1.52-.68-1.52-1.52s.68-1.52,1.52-1.52,1.52.68,1.52,1.52-.68,1.52-1.52,1.52ZM30.45,37.98c-.84,0-1.52-.68-1.52-1.52s.68-1.52,1.52-1.52,1.52.68,1.52,1.52-.68,1.52-1.52,1.52ZM30.45,15.07c-.84,0-1.52-.68-1.52-1.52s.68-1.52,1.52-1.52,1.52.68,1.52,1.52-.68,1.52-1.52,1.52Z"/>
      <path class="cls-3" d="M30.52,7H7.48c-3.57,0-6.48,2.91-6.48,6.48v23.04c0,3.57,2.91,6.48,6.48,6.48h23.04c3.57,0,6.48-2.91,6.48-6.48V13.48c0-3.57-2.91-6.48-6.48-6.48ZM33,36.52c0,.51-.16.99-.42,1.39s-.65.71-1.09.9c-.15.06-.3.11-.47.14s-.33.05-.5.05H7.48c-.17,0-.34-.02-.5-.05s-.32-.08-.47-.14c-.3-.13-.56-.31-.79-.53-.45-.45-.73-1.07-.73-1.75V13.48c0-.68.28-1.3.73-1.75.22-.22.49-.41.79-.53.15-.06.3-.11.47-.14s.33-.05.5-.05h23.04c.17,0,.34.02.5.05s.32.08.47.14c.44.19.82.5,1.09.9.27.4.42.87.42,1.39v23.04Z"/>
      <path class="cls-1" d="M7.62,12.54v2.02c.53-.04.95-.47.95-1.01s-.42-.97-.95-1.01Z"/>
      <path class="cls-1" d="M7.47,14.55v-2.02c-.53.04-.95.47-.95,1.01s.42.97.95,1.01Z"/>
      <path class="cls-3" d="M7.55,12.02c-.84,0-1.52.68-1.52,1.52s.68,1.52,1.52,1.52,1.52-.68,1.52-1.52-.68-1.52-1.52-1.52ZM7.47,12.54v2.02c-.53-.04-.95-.47-.95-1.01s.42-.97.95-1.01ZM7.62,14.55v-2.02c.53.04.95.47.95,1.01s-.42.97-.95,1.01Z"/>
      <path class="cls-1" d="M30.38,37.46v-2.02c-.53.04-.95.47-.95,1.01s.42.97.95,1.01Z"/>
      <path class="cls-1" d="M30.53,35.45v2.02c.53-.04.95-.47.95-1.01s-.42-.97-.95-1.01Z"/>
      <path class="cls-3" d="M30.45,34.93c-.84,0-1.52.68-1.52,1.52s.68,1.52,1.52,1.52,1.52-.68,1.52-1.52-.68-1.52-1.52-1.52ZM30.38,35.45v2.02c-.53-.04-.95-.47-.95-1.01s.42-.97.95-1.01ZM30.53,37.46v-2.02c.53.04.95.47.95,1.01s-.42.97-.95,1.01Z"/>
      <path class="cls-1" d="M30.53,12.54v2.02c.53-.04.95-.47.95-1.01s-.42-.97-.95-1.01Z"/>
      <path class="cls-1" d="M30.38,14.55v-2.02c-.53.04-.95.47-.95,1.01s.42.97.95,1.01Z"/>
      <path class="cls-3" d="M30.45,12.02c-.84,0-1.52.68-1.52,1.52s.68,1.52,1.52,1.52,1.52-.68,1.52-1.52-.68-1.52-1.52-1.52ZM30.38,12.54v2.02c-.53-.04-.95-.47-.95-1.01s.42-.97.95-1.01ZM30.53,14.55v-2.02c.53.04.95.47.95,1.01s-.42.97-.95,1.01Z"/>
      <path class="cls-1" d="M7.47,37.46v-2.02c-.53.04-.95.47-.95,1.01s.42.97.95,1.01Z"/>
      <path class="cls-1" d="M7.62,35.45v2.02c.53-.04.95-.47.95-1.01s-.42-.97-.95-1.01Z"/>
      <path class="cls-3" d="M7.55,34.93c-.84,0-1.52.68-1.52,1.52s.68,1.52,1.52,1.52,1.52-.68,1.52-1.52-.68-1.52-1.52-1.52ZM7.47,35.45v2.02c-.53-.04-.95-.47-.95-1.01s.42-.97.95-1.01ZM7.62,37.46v-2.02c.53.04.95.47.95,1.01s-.42.97-.95,1.01Z"/>
    </g>
  </g>
</svg>